<?xml version="1.0" encoding="UTF-8"?>
<svg width="107.24px" height="27.2px" viewBox="0 0 107.24 27.2" version="1.1" xmlns="http://www.w3.org/2000/svg" xmlns:xlink="http://www.w3.org/1999/xlink">
    <title>LOGO</title>
    <g id="Page-1" stroke="none" stroke-width="1" fill="none" fill-rule="evenodd">
        <g id="Desktop" transform="translate(-176.92, -31.2)" fill="#f5f5f5" fill-rule="nonzero">
            <g id="LOGO" transform="translate(176.92, 31.2)">
                <polygon id="Path" points="6.88 21.48 20.12 21.48 20.12 26.8 0 26.8 0 0.4 6.88 0.4"></polygon>
                <path d="M35.92,0 C38.5866667,0 40.8866667,0.54 42.82,1.62 C44.7533333,2.7 46.24,4.25333333 47.28,6.28 C48.32,8.30666667 48.84,10.7466667 48.84,13.6 C48.84,16.4533333 48.32,18.8933333 47.28,20.92 C46.24,22.9466667 44.7533333,24.5 42.82,25.58 C40.8866667,26.66 38.5866667,27.2 35.92,27.2 C33.2533333,27.2 30.9466667,26.66 29,25.58 C27.0533333,24.5 25.56,22.9466667 24.52,20.92 C23.48,18.8933333 22.96,16.4533333 22.96,13.6 C22.96,10.7466667 23.48,8.30666667 24.52,6.28 C25.56,4.25333333 27.0533333,2.7 29,1.62 C30.9466667,0.54 33.2533333,0 35.92,0 Z M35.92,5.4 C34.64,5.4 33.56,5.70666667 32.68,6.32 C31.8,6.93333333 31.1333333,7.84666667 30.68,9.06 C30.2266667,10.2733333 30,11.7866667 30,13.6 C30,15.3866667 30.2266667,16.8933333 30.68,18.12 C31.1333333,19.3466667 31.8,20.2666667 32.68,20.88 C33.56,21.4933333 34.64,21.8 35.92,21.8 C37.2,21.8 38.2733333,21.4933333 39.14,20.88 C40.0066667,20.2666667 40.6666667,19.3466667 41.12,18.12 C41.5733333,16.8933333 41.8,15.3866667 41.8,13.6 C41.8,11.7866667 41.5733333,10.2733333 41.12,9.06 C40.6666667,7.84666667 40.0066667,6.93333333 39.14,6.32 C38.2733333,5.70666667 37.2,5.4 35.92,5.4 Z" id="Shape"></path>
                <path d="M64.48,27.2 C62.1333333,27.2 60.0466667,26.68 58.22,25.64 C56.3933333,24.6 54.9733333,23.0666667 53.96,21.04 C52.9466667,19.0133333 52.44,16.5466667 52.44,13.64 C52.44,10.7866667 52.9733333,8.34666667 54.04,6.32 C55.1066667,4.29333333 56.6333333,2.73333333 58.62,1.64 C60.6066667,0.546666667 62.9466667,0 65.64,0 C68.6266667,0 71.04,0.54 72.88,1.62 C74.72,2.7 76.1466667,4.41333333 77.16,6.76 L70.8,9.28 C70.4533333,7.92 69.84,6.93333333 68.96,6.32 C68.08,5.70666667 66.9866667,5.4 65.68,5.4 C64.3733333,5.4 63.2533333,5.71333333 62.32,6.34 C61.3866667,6.96666667 60.68,7.88666667 60.2,9.1 C59.72,10.3133333 59.48,11.8133333 59.48,13.6 C59.48,15.4666667 59.7266667,17.0266667 60.22,18.28 C60.7133333,19.5333333 61.4466667,20.46 62.42,21.06 C63.3933333,21.66 64.6,21.96 66.04,21.96 C66.8133333,21.96 67.52,21.8666667 68.16,21.68 C68.8,21.4933333 69.36,21.22 69.84,20.86 C70.32,20.5 70.6933333,20.0466667 70.96,19.5 C71.2266667,18.9533333 71.36,18.3066667 71.36,17.56 L71.36,17.16 L65.32,17.16 L65.32,12.56 L77.2,12.56 L77.2,26.8 L72.52,26.8 L72,20.6 L73.12,21.56 C72.56,23.3733333 71.5533333,24.7666667 70.1,25.74 C68.6466667,26.7133333 66.7733333,27.2 64.48,27.2 Z" id="Path"></path>
                <path d="M94.32,0 C96.9866667,0 99.2866667,0.54 101.22,1.62 C103.153333,2.7 104.64,4.25333333 105.68,6.28 C106.72,8.30666667 107.24,10.7466667 107.24,13.6 C107.24,16.4533333 106.72,18.8933333 105.68,20.92 C104.64,22.9466667 103.153333,24.5 101.22,25.58 C99.2866667,26.66 96.9866667,27.2 94.32,27.2 C91.6533333,27.2 89.3466667,26.66 87.4,25.58 C85.4533333,24.5 83.96,22.9466667 82.92,20.92 C81.88,18.8933333 81.36,16.4533333 81.36,13.6 C81.36,10.7466667 81.88,8.30666667 82.92,6.28 C83.96,4.25333333 85.4533333,2.7 87.4,1.62 C89.3466667,0.54 91.6533333,0 94.32,0 Z M94.32,5.4 C93.04,5.4 91.96,5.70666667 91.08,6.32 C90.2,6.93333333 89.5333333,7.84666667 89.08,9.06 C88.6266667,10.2733333 88.4,11.7866667 88.4,13.6 C88.4,15.3866667 88.6266667,16.8933333 89.08,18.12 C89.5333333,19.3466667 90.2,20.2666667 91.08,20.88 C91.96,21.4933333 93.04,21.8 94.32,21.8 C95.6,21.8 96.6733333,21.4933333 97.54,20.88 C98.4066667,20.2666667 99.0666667,19.3466667 99.52,18.12 C99.9733333,16.8933333 100.2,15.3866667 100.2,13.6 C100.2,11.7866667 99.9733333,10.2733333 99.52,9.06 C99.0666667,7.84666667 98.4066667,6.93333333 97.54,6.32 C96.6733333,5.70666667 95.6,5.4 94.32,5.4 Z" id="Shape"></path>
            </g>
        </g>
    </g>
</svg>